# xmcd CD database file
#
# Track frame offsets:
#	150
#	25444
#	48618
#	74092
#	95850
#	116100
#	137812
#	157713
#	181290
#	208535
#
# Disc length: 3180 seconds
#
# Revision: 0
# Processed by: cddbd v1.5.2PL0 Copyright (c) Steve Scherf et al.
# Submitted via: CDex 1.51
#
DISCID=960c6a0a
DTITLE=Ole Swing - Swin Iberico
DYEAR=2012
DGENRE=Jazz
TTITLE0=Ay Pena Penita Pena (feat. Raúl Márquez)
TTITLE1=	Danza Ritual Del Fuego (feat. Paco Rivas)
TTITLE2=El Emigrante (feat. Paco Rivas) 	
TTITLE3=	España Cañi (feat. Raúl Márquez)
TTITLE4=la Bien Pagá (feat. Toni Zenet)
TTITLE5=La Giralda (feat. Gerardo Ramos)
TTITLE6=lLa Morena De Mi Copla (feat. Fernando Bellver)
TTITLE7=	Ojos Verdes (feat. Fernando Bellver)
TTITLE8=Te Lo Juro Yo (feat. Eva Durán)
TTITLE9=Échale Guindas Al Pavo (feat. Gerardo Ramos)
EXTD=YEAR: 2012
EXTT0=
EXTT1=
EXTT2=
EXTT3=
EXTT4=
EXTT5=
EXTT6=
EXTT7=
EXTT8=
EXTT9=
PLAYORDER=
